<?xml version="1.0" encoding="utf-8"?>
<!-- Generator: Adobe Illustrator 26.0.2, SVG Export Plug-In . SVG Version: 6.00 Build 0)  -->
<svg version="1.1" id="Layer_1" xmlns="http://www.w3.org/2000/svg" xmlns:xlink="http://www.w3.org/1999/xlink" x="0px" y="0px"
	 viewBox="0 0 32 94" style="enable-background:new 0 0 32 94;" xml:space="preserve">
<style type="text/css">
	.st0{fill:#223F99;}
	.st1{fill-rule:evenodd;clip-rule:evenodd;fill:#223F99;}
	.st2{opacity:0.75;fill-rule:evenodd;clip-rule:evenodd;fill:#223F99;}
	.st3{opacity:0.5;fill-rule:evenodd;clip-rule:evenodd;fill:#223F99;}
</style>
<g>
	<path class="st0" d="M28.6,5.1C25.7,1.7,21.8,0,16,0S6.3,1.7,3.4,5.1C0.4,8.5,0,12.5,0,14.5v24c0,2.1,0.4,6,3.4,9.4
		C6.3,51.3,9.4,53,16,53s9.7-1.7,12.6-5.1c2.9-3.4,3.4-7.4,3.4-9.4v-24C32,12.5,31.6,8.5,28.6,5.1z M16,18c-1.2,0-2-0.5-2-1.7v-4.6
		c0-1.2,0.8-1.7,2-1.7s2,0.5,2,1.7v4.6C18,17.5,17.2,18,16,18z M30,38.5C30,40.6,28.8,51,16,51C3,51,2,40.6,2,38.5V15
		C2,12.9,2.6,2.4,15,2v5.9c-1.7,0.4-3,1.9-3,3.8v4.6c0,1.8,1.2,3.4,3,3.8v7c0,0.5,0.5,0.9,1,0.9c0.5,0,1-0.4,1-0.9v-7
		c1.7-0.4,3-1.9,3-3.8v-4.6c0-1.8-1.2-3.4-3-3.8V2c11.5,0.4,13,10.4,13,12.5V38.5z"/>
	<path class="st1" d="M16,87L16,87c0.6,0,1,0.4,1,1v5c0,0.6-0.4,1-1,1l0,0c-0.6,0-1-0.4-1-1v-5C15,87.4,15.4,87,16,87z"/>
	<path class="st2" d="M16,76L16,76c0.6,0,1,0.4,1,1v3c0,0.6-0.4,1-1,1l0,0c-0.6,0-1-0.4-1-1v-3C15,76.4,15.4,76,16,76z"/>
	<path class="st3" d="M16,67L16,67c0.6,0,1,0.4,1,1v1c0,0.6-0.4,1-1,1l0,0c-0.6,0-1-0.4-1-1v-1C15,67.4,15.4,67,16,67z"/>
</g>
</svg>
