<svg xmlns="http://www.w3.org/2000/svg" width="37" height="46" viewBox="0 0 37 46">
    <g fill="#000" fill-rule="nonzero">
        <path d="M34 45.043H3c-1.87 0-3-1.177-3-3.043V3c0-1.866 1.13-3 3-3h22.232c.375 0 .679.303.679.676C25.91 1.05 26.375 2 26 2H3c-1.122 0-1-.119-1 1v38.662C2 42.782 1.878 43 3 43h31c1.122 0 1 .119 1-1V11.776c0-.373.696-.676 1.07-.676.375 0 .93.303.93.676V42c0 1.864-1.129 3.043-3 3.043z"/>
        <path d="M36.07 13H25.232C24.857 13 24 12.148 24 11.775V.97c0-.373.857-.676 1.232-.676S26 .627 26 1v10h10.07c.375 0 .679.401.679.775 0 .373-.303 1.225-.679 1.225z"/>
        <path d="M36.07 12.452c-.176 0-.937.683-1.07.548L24 2c-.26-.267.491-1.547.76-1.807a.68.68 0 0 1 .96.014l10.837 11.098a.676.676 0 0 1-.487 1.147zM20.702 21.727c-.325-.272-.695-.454-1.113-.59A6.691 6.691 0 0 0 18.152 21H16.02c-.371 0-.603.09-.788.227-.14.137-.232.41-.232.773v5.864c0 .272 0 .454.093.636.046.182.139.273.278.364.139.09.37.136.695.136H18.2c.37 0 .695-.045 1.02-.09.278-.046.556-.137.834-.228.278-.137.51-.273.695-.455.278-.272.51-.545.696-.863.185-.319.324-.682.417-1.091.093-.41.139-.818.139-1.318 0-1.41-.417-2.5-1.298-3.228zm-1.205 5.637a1.89 1.89 0 0 1-.418.227c-.185.045-.324.09-.463.09h-1.9v-5.454h1.112c.51 0 .927.046 1.298.182.37.091.649.364.88.773.232.409.371 1 .371 1.773-.046 1.181-.324 1.954-.88 2.409zM12.244 21.581c-.222-.223-.488-.358-.844-.447-.311-.09-.8-.134-1.378-.134H7.978c-.356 0-.622.09-.756.223-.178.135-.222.403-.222.76v6.078c0 .313.089.537.222.716.134.178.356.223.578.223.222 0 .4-.09.578-.268.133-.179.222-.402.222-.715v-2.235h1.467c.977 0 1.689-.223 2.177-.626.49-.402.756-1.028.756-1.832 0-.358-.044-.715-.178-1.028-.178-.268-.355-.536-.578-.715zm-1.066 2.503a1.129 1.129 0 0 1-.578.402 2.94 2.94 0 0 1-.933.134H8.6v-2.413h1.067c.71 0 1.155.134 1.422.357.222.224.311.492.311.85-.044.268-.089.491-.222.67zM25.073 21c-.293.044-.488.089-.634.178a.566.566 0 0 0-.341.31c-.098.134-.098.312-.098.579v6c0 .31.098.577.244.71.146.179.39.223.634.223s.44-.089.634-.222c.147-.178.244-.4.244-.711v-2.578h2.878c.244 0 .44-.045.586-.178.146-.089.195-.267.195-.444a.545.545 0 0 0-.195-.445 1.114 1.114 0 0 0-.586-.178h-2.878v-2h3.415c.292 0 .488-.044.634-.177a.545.545 0 0 0 .195-.445.545.545 0 0 0-.195-.444c-.146-.134-.342-.178-.634-.178h-4.098z"/>
    </g>
</svg>
