<?xml version="1.0" encoding="utf-8"?>
<!-- Generator: Adobe Illustrator 26.0.2, SVG Export Plug-In . SVG Version: 6.00 Build 0)  -->
<svg version="1.1" id="Layer_1" xmlns="http://www.w3.org/2000/svg" xmlns:xlink="http://www.w3.org/1999/xlink" x="0px" y="0px"
	 viewBox="0 0 248 116.6" style="enable-background:new 0 0 248 116.6;" xml:space="preserve">
<style type="text/css">
	.st0{fill:#FFFFFF;}
</style>
<g>
	<g>
		<path class="st0" d="M5.3,72.5h11.7C23.8,72.5,27,77,27,83.7c0,6.4-2.8,11.8-9.9,11.8H5.3V72.5z M17,92.5c5.6,0,6.6-4.7,6.6-8.8
			c0-4-1.3-8.3-7.3-8.3H8.7v17.1H17z"/>
		<path class="st0" d="M30.1,72.5h3.4v23h-3.4V72.5z"/>
		<path class="st0" d="M55.1,72.5h3.7l-10.1,23H45l-10.3-23h3.9L46.9,92L55.1,72.5z"/>
		<path class="st0" d="M60,72.5h3.4v23H60V72.5z"/>
		<path class="st0" d="M69,87.9c0.1,4.1,3.9,5.2,7.4,5.2c3.6,0,6.2-1.4,6.2-3.9c0-2.1-1.6-2.9-4.3-3.4l-5.2-0.9
			c-2.7-0.4-6.8-1.5-6.8-6c0-4.2,3.3-7,9.2-7c4.6,0,9.5,1.7,9.8,7.2h-3.4c-0.3-1.8-1.3-4.3-6.8-4.3c-2.5,0-5.4,1.1-5.4,3.8
			c0,1.4,0.9,2.5,3.8,3l5.6,1c1.8,0.4,6.9,1.2,6.9,5.9c0,5.8-5.3,7.6-9.9,7.6c-5.2,0-10.6-1.8-10.6-8.2H69z"/>
		<path class="st0" d="M88.2,72.5h3.4v23h-3.4V72.5z"/>
		<path class="st0" d="M107.3,71.9c9.3,0,12.8,6.2,12.8,12.1c0,5.9-3.5,12.1-12.8,12.1S94.5,89.9,94.5,84
			C94.5,78.1,98,71.9,107.3,71.9z M107.3,74.9c-5.3,0-9.4,3-9.4,9.1c0,6.1,4.1,9.1,9.4,9.1c5.3,0,9.4-3,9.4-9.1
			C116.7,77.9,112.6,74.9,107.3,74.9z"/>
		<path class="st0" d="M126.3,77.2L126.3,77.2l-0.1,18.3h-3.4v-23h4l14.8,18.3h0.1V72.5h3.4v23h-4L126.3,77.2z"/>
		<path class="st0" d="M161.6,83.1h10.6v12.4h-2.5l-0.6-3.3c-1.5,1.8-4,3.9-8.8,3.9c-9.2,0-12.2-6.6-12.2-11.7
			c0-8.9,6.1-12.5,12.1-12.5c4.7,0,10.1,1.5,11.6,7.8h-3.6c-1.1-3.2-3.4-4.9-7.8-4.9c-6.1,0-8.8,4.3-8.8,9.2c0,6.5,4.2,9,9,9
			c5,0,8.3-3,8.6-7.1h-7.6V83.1z"/>
		<path class="st0" d="M176.1,72.5h14.3c4.6,0,6.3,3.2,6.3,6.1c0,2.8-1.3,4.9-3.9,5.7v0.1c2.1,0.3,3.2,2.2,3.4,4.9
			c0.2,4.3,0.4,5.4,1.1,6.3h-3.6c-0.5-0.6-0.5-1.6-0.7-4.4c-0.3-4.1-1.6-5.4-4.5-5.4h-8.9v9.8h-3.4V72.5z M189,82.8
			c3.4,0,4.2-2,4.2-3.6c0-2.2-1.3-3.7-4.1-3.7h-9.7v7.3H189z"/>
		<path class="st0" d="M210.8,71.9c9.3,0,12.8,6.2,12.8,12.1c0,5.9-3.5,12.1-12.8,12.1S198,89.9,198,84
			C198,78.1,201.5,71.9,210.8,71.9z M210.8,74.9c-5.3,0-9.4,3-9.4,9.1c0,6.1,4.1,9.1,9.4,9.1c5.3,0,9.4-3,9.4-9.1
			C220.2,77.9,216.1,74.9,210.8,74.9z"/>
		<path class="st0" d="M227.6,87.9c0.1,4.1,3.9,5.2,7.4,5.2c3.6,0,6.2-1.4,6.2-3.9c0-2.1-1.6-2.9-4.3-3.4l-5.2-0.9
			c-2.7-0.4-6.8-1.5-6.8-6c0-4.2,3.3-7,9.2-7c4.6,0,9.5,1.7,9.8,7.2h-3.4c-0.3-1.8-1.3-4.3-6.8-4.3c-2.5,0-5.4,1.1-5.4,3.8
			c0,1.4,0.9,2.5,3.8,3l5.6,1c1.8,0.4,6.9,1.2,6.9,5.9c0,5.8-5.3,7.6-9.9,7.6c-5.2,0-10.6-1.8-10.6-8.2H227.6z"/>
		<path class="st0" d="M47,104.1h1.3v12.4h-1.2v-10.7l0.1,0.5l-3.7,8.4h-0.9l-3.7-8.2l0.1-0.7v10.7h-1.2v-12.4H39l4,9L47,104.1z"/>
		<path class="st0" d="M52.5,116.1c-0.6-0.3-1.1-0.8-1.4-1.5c-0.3-0.7-0.5-1.5-0.5-2.5v-8h1.2v8.1c0,1.1,0.3,1.9,0.8,2.4
			c0.5,0.5,1.3,0.8,2.4,0.8c1,0,1.8-0.3,2.4-0.8c0.5-0.5,0.8-1.4,0.8-2.4v-8.1h1.2v8c0,1-0.2,1.9-0.5,2.5c-0.3,0.7-0.8,1.2-1.5,1.5
			c-0.7,0.3-1.5,0.5-2.4,0.5C54,116.6,53.2,116.5,52.5,116.1z"/>
		<path class="st0" d="M61.4,104.1h1.2v12.4h-1.2V104.1z M62.3,115.4h7.1v1.1h-7.1V115.4z"/>
		<path class="st0" d="M68.6,104.1h8.8v1.1h-8.8V104.1z M72.4,104.6h1.2v11.9h-1.2V104.6z"/>
		<path class="st0" d="M80,116.5h-1.2v-12.4H80V116.5z"/>
		<path class="st0" d="M82.7,104.1h1.2l7.2,11.2l-0.5-0.3v-10.9h1.2v12.4h-1.3l-7.4-11.3l0.7,0.5v10.8h-1.2V104.1z"/>
		<path class="st0" d="M97.5,104.1H99l4.6,12.4h-1.4l-4-11.1l-4,11.1h-1.4L97.5,104.1z M95,112.4h6.5v1.1H95V112.4z"/>
		<path class="st0" d="M102.8,104.1h8.8v1.1h-8.8V104.1z M106.6,104.6h1.2v11.9h-1.2V104.6z"/>
		<path class="st0" d="M114.1,116.5h-1.2v-12.4h1.2V116.5z"/>
		<path class="st0" d="M118.6,116.1c-0.7-0.4-1.2-0.9-1.5-1.6c-0.3-0.7-0.5-1.5-0.5-2.5v-3.5c0-1,0.2-1.8,0.5-2.5
			c0.3-0.7,0.8-1.2,1.5-1.6c0.7-0.4,1.4-0.5,2.4-0.5c0.9,0,1.7,0.2,2.4,0.5c0.7,0.4,1.2,0.9,1.5,1.6c0.3,0.7,0.5,1.5,0.5,2.5v3.5
			c0,1-0.2,1.8-0.5,2.5c-0.3,0.7-0.8,1.2-1.5,1.6c-0.7,0.4-1.4,0.5-2.4,0.5C120,116.6,119.2,116.5,118.6,116.1z M122.6,115.1
			c0.5-0.3,0.8-0.6,1.1-1.2c0.2-0.5,0.4-1.1,0.4-1.8v-3.6c0-0.7-0.1-1.3-0.4-1.8c-0.2-0.5-0.6-0.9-1.1-1.2c-0.5-0.3-1-0.4-1.7-0.4
			c-0.7,0-1.2,0.1-1.7,0.4c-0.5,0.3-0.8,0.6-1.1,1.2c-0.2,0.5-0.4,1.1-0.4,1.8v3.6c0,0.7,0.1,1.3,0.4,1.8c0.2,0.5,0.6,0.9,1.1,1.2
			c0.5,0.3,1,0.4,1.7,0.4C121.6,115.5,122.2,115.4,122.6,115.1z"/>
		<path class="st0" d="M127.3,104.1h1.2l7.2,11.2l-0.5-0.3v-10.9h1.2v12.4h-1.3l-7.4-11.3l0.7,0.5v10.8h-1.2V104.1z"/>
		<path class="st0" d="M142.2,104.1h1.5l4.6,12.4h-1.4l-4-11.1l-4,11.1h-1.4L142.2,104.1z M139.7,112.4h6.5v1.1h-6.5V112.4z"/>
		<path class="st0" d="M149.5,104.1h1.2v12.4h-1.2V104.1z M150.4,115.4h7.1v1.1h-7.1V115.4z"/>
		<path class="st0" d="M161.3,104.1h8.8v1.1h-8.8V104.1z M165,104.6h1.2v11.9H165V104.6z"/>
		<path class="st0" d="M171.1,104.1h1.2v12.4h-1.2V104.1z M171.9,110.1h4.2c0.5,0,0.9-0.1,1.2-0.3c0.3-0.2,0.6-0.5,0.8-0.9
			c0.2-0.4,0.3-0.8,0.3-1.3c0-0.5-0.1-0.9-0.3-1.3c-0.2-0.4-0.5-0.7-0.8-0.9c-0.4-0.2-0.8-0.3-1.2-0.3h-4.2v-1.1h4.2
			c0.7,0,1.3,0.1,1.9,0.4c0.5,0.3,1,0.7,1.3,1.3c0.3,0.5,0.4,1.2,0.4,1.9c0,0.7-0.1,1.3-0.4,1.9c-0.3,0.5-0.7,1-1.3,1.3
			c-0.5,0.3-1.2,0.4-1.9,0.4h-4.2V110.1z M175.9,110.9l1.1-0.4l3.2,6h-1.5L175.9,110.9z"/>
		<path class="st0" d="M184.8,104.1h1.5l4.6,12.4h-1.4l-4-11.1l-4,11.1h-1.4L184.8,104.1z M182.4,112.4h6.5v1.1h-6.5V112.4z"/>
		<path class="st0" d="M192.2,104.1h1.2v12.4h-1.2V104.1z M193.3,115.4h2.8c1.2,0,2-0.3,2.6-0.8c0.6-0.5,0.9-1.3,0.9-2.4v-3.7
			c0-1.1-0.3-1.9-0.9-2.4c-0.6-0.5-1.4-0.8-2.6-0.8h-2.8v-1.1h2.8c1.1,0,1.9,0.2,2.6,0.5c0.7,0.3,1.2,0.8,1.6,1.5
			c0.3,0.7,0.5,1.5,0.5,2.5v3.5c0,1-0.2,1.8-0.5,2.5c-0.3,0.7-0.9,1.2-1.6,1.5c-0.7,0.3-1.6,0.5-2.6,0.5h-2.8V115.4z"/>
		<path class="st0" d="M202.9,104.1h1.2v12.4h-1.2V104.1z M203.7,104.1h7.1v1.1h-7.1V104.1z M203.7,109.8h6.2v1.1h-6.2V109.8z
			 M203.7,115.4h7.1v1.1h-7.1V115.4z"/>
	</g>
	<g>
		<path class="st0" d="M148.7,0c-8.8,0-17.7,3-23.8,9.8c0.5,0.9,1.1,1.8,1.5,2.7c0.7,1.3,1.2,2.8,1.7,4.3c0.3,0.8,0.5,1.7,0.7,2.6
			c3.3-6.9,10-11.7,20.3-11.7c11.5,0,17.6,4.3,20.4,12.7h9.4C175.2,4,161,0,148.7,0z"/>
		<path class="st0" d="M180,29.2v32.4h-6.4l-1.5-8.6c-4,4.6-10.4,10.1-23.1,10.1c-11.7,0-19.6-4.1-24.5-9.9
			c-0.6-0.7-1.2-1.4-1.7-2.2c-0.6-0.8-1.1-1.7-1.6-2.6c-0.9-1.6-1.6-3.2-2.1-4.8c-0.3-0.7-0.5-1.5-0.7-2.2c-0.5-1.9-0.6-3.8-0.5-5.8
			c0.1-1.6,0.2-3.3,0.2-4.9c0-1.8-0.1-3.7-0.3-5.5c-0.2-1.4-0.5-2.8-0.9-4.2c-2.1-7.2-7.2-13-18.6-13H77.4v39H68V0.1h31.9
			c10.4,0,17.6,3.7,22.1,10.1c0.4,0.6,0.8,1.1,1.1,1.7c0.6,1,1.1,2,1.5,3.1c0.7,1.7,1.3,3.5,1.7,5.4c0,0,0,0,0,0c0.5,2,0.5,4,0.2,6
			c-0.3,1.7-0.4,3.5-0.4,5.3c0,2.6,0.3,4.9,0.7,7c0.4,1.8,1,3.4,1.6,4.9c3.9,8.3,12,11.7,21.1,11.7c13.1,0,21.6-7.8,22.5-18.5h-19.7
			v-7.7H180z"/>
		<path class="st0" d="M121.3,53.4c-4.3,6-11.1,9.7-20.8,9.7H77.4V55H100c9.1,0,13.7-4.5,16-10.5c0.5,1.4,1.1,2.8,1.9,4.1
			c0.5,0.9,1,1.7,1.6,2.6C120.1,51.9,120.6,52.6,121.3,53.4C121.2,53.3,121.3,53.4,121.3,53.4z"/>
	</g>
	<g>
		<rect x="0" y="109.4" class="st0" width="33.8" height="2"/>
		<rect x="214.2" y="109.4" class="st0" width="33.8" height="2"/>
	</g>
</g>
</svg>
