<?xml version="1.0" encoding="utf-8"?>
<!-- Generator: Adobe Illustrator 26.0.2, SVG Export Plug-In . SVG Version: 6.00 Build 0)  -->
<svg version="1.1" id="Layer_1" xmlns="http://www.w3.org/2000/svg" xmlns:xlink="http://www.w3.org/1999/xlink" x="0px" y="0px"
	 viewBox="0 0 18.6 12" style="enable-background:new 0 0 18.6 12;" xml:space="preserve">
<style type="text/css">
	.st0{fill:#FFFFFF;}
</style>
<g>
	<path class="st0" d="M13.4,0.8c-1.5,0-2.9,0.5-4,1.6c0.1,0.1,0.2,0.3,0.3,0.5C9.8,3.1,9.9,3.3,10,3.5c0,0.1,0.1,0.3,0.1,0.4
		C10.7,2.8,11.8,2,13.5,2c1.9,0,2.9,0.7,3.4,2.1h1.6C17.8,1.4,15.5,0.8,13.4,0.8z"/>
	<path class="st0" d="M18.6,5.6V11h-1.1l-0.3-1.4c-0.7,0.8-1.7,1.7-3.8,1.7c-1.9,0-3.3-0.7-4.1-1.6C9.3,9.5,9.2,9.4,9.1,9.2
		C9,9.1,8.9,9,8.8,8.8C8.7,8.6,8.6,8.3,8.5,8c0-0.1-0.1-0.2-0.1-0.4C8.3,7.3,8.3,7,8.3,6.7c0-0.3,0-0.5,0-0.8c0-0.3,0-0.6-0.1-0.9
		c0-0.2-0.1-0.5-0.1-0.7C7.8,3.1,6.9,2.1,5,2.1H1.6v6.5H0V0.8h5.3C7,0.8,8.2,1.4,9,2.4C9,2.5,9.1,2.6,9.2,2.7
		c0.1,0.2,0.2,0.3,0.3,0.5c0.1,0.3,0.2,0.6,0.3,0.9c0,0,0,0,0,0c0.1,0.3,0.1,0.7,0,1c0,0.3-0.1,0.6-0.1,0.9c0,0.4,0,0.8,0.1,1.2
		C9.8,7.5,9.9,7.8,10,8c0.6,1.4,2,1.9,3.5,1.9c2.2,0,3.6-1.3,3.7-3.1H14V5.6H18.6z"/>
	<path class="st0" d="M8.8,9.6c-0.7,1-1.8,1.6-3.5,1.6H1.6V9.9h3.8c1.5,0,2.3-0.7,2.7-1.7c0.1,0.2,0.2,0.5,0.3,0.7
		C8.4,9,8.5,9.1,8.6,9.2C8.6,9.4,8.7,9.5,8.8,9.6C8.8,9.6,8.8,9.6,8.8,9.6z"/>
</g>
</svg>
