<svg xmlns="http://www.w3.org/2000/svg" viewBox="0 0 12.11 13"><defs><style>.cls-1{fill:#fff;}</style></defs><title>location</title><g id="Слой_2" data-name="Слой 2"><g id="Слой_1-2" data-name="Слой 1"><g id="_Группа_" data-name="&lt;Группа&gt;"><g id="_Группа_2" data-name="&lt;Группа&gt;"><path id="_Контур_" data-name="&lt;Контур&gt;" class="cls-1" d="M11.86,12.83a.71.71,0,0,0,.16-.89L10.42,9.1a1.2,1.2,0,0,0-1-.45,14.28,14.28,0,0,1-2.52,2.66,1.27,1.27,0,0,1-.81.29,1.26,1.26,0,0,1-.81-.29A14.28,14.28,0,0,1,2.73,8.64a1.2,1.2,0,0,0-1,.45L.09,11.95a.7.7,0,0,0,.16.89h0A.71.71,0,0,0,.71,13h10.7a.71.71,0,0,0,.45-.17Z"/></g><g id="_Группа_3" data-name="&lt;Группа&gt;"><path id="_Составной_контур_" data-name="&lt;Составной контур&gt;" class="cls-1" d="M9.91,3.86a3.86,3.86,0,0,0-7.69-.37,4,4,0,0,0,.05,1.11h0l0,.12a3.83,3.83,0,0,0,.26.76A11.17,11.17,0,0,0,5.84,9.59a.34.34,0,0,0,.43,0A11.15,11.15,0,0,0,9.56,5.47a3.73,3.73,0,0,0,.26-.76l0-.12h0A3.67,3.67,0,0,0,9.91,3.86ZM6.06,6.24A2.35,2.35,0,1,1,8.4,3.9,2.35,2.35,0,0,1,6.06,6.24Z"/></g></g></g></g></svg>