<svg xmlns="http://www.w3.org/2000/svg" viewBox="0 0 14.62 11"><defs><style>.cls-1{fill:#fff;}</style></defs><title>mail</title><g id="Слой_2" data-name="Слой 2"><g id="Слой_1-2" data-name="Слой 1"><path class="cls-1" d="M1.4,2.87l1.67.94L5.21,5l.35.2L6,5.47l.42.21a2.76,2.76,0,0,0,.47.18,1.57,1.57,0,0,0,.41.06h0a1.57,1.57,0,0,0,.41-.06,2.76,2.76,0,0,0,.47-.18l.42-.21.44-.25L9.41,5l3.82-2.15a3.59,3.59,0,0,0,1-.81,1.53,1.53,0,0,0,.4-1,.93.93,0,0,0-.39-.75A1.42,1.42,0,0,0,13.32,0h-12a1.3,1.3,0,0,0-1,.34A1.18,1.18,0,0,0,0,1.2a1.39,1.39,0,0,0,.45.9A3.79,3.79,0,0,0,1.4,2.87Z"/><path class="cls-1" d="M13.81,5.2Q11.13,6.67,9.74,7.48L9,7.91a5.14,5.14,0,0,1-.77.32,2.82,2.82,0,0,1-.9.16h0a2.82,2.82,0,0,1-.9-.16,5.14,5.14,0,0,1-.77-.32l-.75-.43Q3.78,6.82.82,5.2A4.2,4.2,0,0,1,0,4.62V9.94a.93.93,0,0,0,.38.75,1.42,1.42,0,0,0,.92.31h12a1.42,1.42,0,0,0,.92-.31.93.93,0,0,0,.38-.75V4.62A4.36,4.36,0,0,1,13.81,5.2Z"/></g></g></svg>