<svg xmlns="http://www.w3.org/2000/svg" viewBox="0 0 13 13"><defs><style>.cls-1{fill:#fff;}</style></defs><title>phone</title><g id="Слой_2" data-name="Слой 2"><g id="Слой_1-2" data-name="Слой 1"><path class="cls-1" d="M13,10.07q-.06-.17-.7-.49l-.5-.28L11.19,9l-.49-.29-.23-.16a2.59,2.59,0,0,0-.33-.2.6.6,0,0,0-.26-.06.77.77,0,0,0-.46.26,4.5,4.5,0,0,0-.51.57,5.57,5.57,0,0,1-.49.57A15.15,15.15,0,0,1,6.9,11a.63.63,0,0,1-.21,0l-.19-.08-.22-.13-.18-.11A9.7,9.7,0,0,1,3.94,9.06,9.7,9.7,0,0,1,2.33,6.89l-.11-.18L2.1,6.49,2,6.3A.62.62,0,0,1,2,6.1,15.15,15.15,0,0,1,3.32,4.59a5.56,5.56,0,0,1,.57-.49,4.49,4.49,0,0,0,.57-.51.77.77,0,0,0,.26-.46.6.6,0,0,0-.06-.26,2.57,2.57,0,0,0-.2-.33L4.3,2.31,4,1.81l-.32-.59L3.42.73Q3.09.08,2.93,0a.52.52,0,0,0-.19,0,3,3,0,0,0-.65.09,3.66,3.66,0,0,0-.63.19,2.48,2.48,0,0,0-1,1.13A3.58,3.58,0,0,0,0,3.13a3.57,3.57,0,0,0,0,.48,4,4,0,0,0,.12.53q.08.3.13.44l.19.51.17.45A8.36,8.36,0,0,0,1.4,7.16a13.69,13.69,0,0,0,2,2.44,13.7,13.7,0,0,0,2.44,2,8.38,8.38,0,0,0,1.62.77l.45.17.51.19.44.13a4,4,0,0,0,.53.12,3.42,3.42,0,0,0,2.2-.44,2.47,2.47,0,0,0,1.13-1,3.64,3.64,0,0,0,.19-.63,3,3,0,0,0,.09-.65A.51.51,0,0,0,13,10.07Z"/></g></g></svg>